<?xml version="1.0" encoding="UTF-8"?>
<svg version="1.1" xmlns="http://www.w3.org/2000/svg" width="50" height="50">
<!-- <path d="M0 0 C165 0 330 0 500 0 C500 165 500 330 500 500 C335 500 170 500 0 500 C0 335 0 170 0 0 Z " fill="#000000" transform="translate(0,0)"/> -->
<path d="M0 0 C1.96793628 0.89618474 3.91510053 1.83846558 5.84765625 2.80859375 C7.00048096 3.38561035 8.15330566 3.96262695 9.34106445 4.55712891 C10.5816658 5.18367612 11.82214157 5.81047203 13.0625 6.4375 C14.34002901 7.08003245 15.61761735 7.72244694 16.89526367 8.36474609 C25.3887615 12.64294042 33.83382454 17.00735682 42.23046875 21.47265625 C45.88906451 23.41798141 49.56098466 25.33635292 53.23828125 27.24609375 C54.29877686 27.79700684 55.35927246 28.34791992 56.4519043 28.91552734 C58.53471749 29.99659665 60.61819275 31.07639156 62.70239258 32.15478516 C64.10654419 32.8844751 64.10654419 32.8844751 65.5390625 33.62890625 C66.37646973 34.06275635 67.21387695 34.49660645 68.07666016 34.94360352 C70 36 70 36 71 37 C71.12066952 39.12857404 71.17028437 41.26119436 71.19287109 43.39306641 C71.20513733 44.39589912 71.20513733 44.39589912 71.21765137 45.41899109 C71.24258641 47.64650582 71.25905852 49.87395558 71.2734375 52.1015625 C71.27876118 52.8652351 71.28408485 53.6289077 71.28956985 54.41572189 C71.31636022 58.47245022 71.3356999 62.52914744 71.35009766 66.5859375 C71.36333626 69.92053278 71.39098929 73.25450137 71.43212891 76.58886719 C71.48198092 80.62961928 71.50628473 84.66981102 71.51332474 88.71085739 C71.51996323 90.23920169 71.53498714 91.76753722 71.55921555 93.29570389 C71.91991687 117.46252525 60.43091593 134.4959365 43.9375 151.5 C32.71641398 162.71445907 19.35501749 170.46903993 5 177 C4.12730469 177.42152344 3.25460938 177.84304688 2.35546875 178.27734375 C-3.98528509 180.22268282 -11.37910107 175.68024785 -17 173 C-25.51953662 168.43937237 -33.64715438 163.28681968 -41 157 C-41.79664063 156.32453125 -42.59328125 155.6490625 -43.4140625 154.953125 C-58.42027161 141.85172881 -72.54909613 125.47769432 -75 105 C-75.08235691 102.6555191 -75.11789396 100.30905767 -75.11352539 97.96313477 C-75.11367142 97.29886978 -75.11381744 96.6346048 -75.1139679 95.95021057 C-75.11327785 93.78057451 -75.10552854 91.61102709 -75.09765625 89.44140625 C-75.09578884 87.92683458 -75.09436646 86.41226231 -75.09336853 84.89768982 C-75.0895688 80.93081973 -75.07976051 76.96398684 -75.06866455 72.99713135 C-75.05839546 68.94145206 -75.05385918 64.8857667 -75.04882812 60.83007812 C-75.03813573 52.88670177 -75.02109021 44.94335553 -75 37 C-74.3598848 36.66725067 -73.71976959 36.33450134 -73.06025696 35.9916687 C-70.09823576 34.45119031 -67.13700624 32.90919583 -64.17578125 31.3671875 C-63.16938599 30.84406982 -62.16299072 30.32095215 -61.12609863 29.78198242 C-54.44099957 26.29912503 -47.79935434 22.74482949 -41.1875 19.125 C-40.25365479 18.61509018 -39.31980957 18.10518036 -38.35766602 17.57981873 C-33.82380936 15.10403883 -29.29932423 12.61246514 -24.78565979 10.10003662 C-22.40307472 8.77704285 -20.01500314 7.46416718 -17.62588501 6.15301514 C-15.90486395 5.2039683 -14.19099907 4.24198133 -12.47729492 3.27978516 C-10.90685425 2.42006104 -10.90685425 2.42006104 -9.3046875 1.54296875 C-7.9122583 0.7698938 -7.9122583 0.7698938 -6.49169922 -0.01879883 C-3.61966384 -1.1497718 -2.80918157 -1.15253662 0 0 Z " fill="#010101" transform="translate(252,161)"/>
<path d="M0 0 C1.96793628 0.89618474 3.91510053 1.83846558 5.84765625 2.80859375 C7.00048096 3.38561035 8.15330566 3.96262695 9.34106445 4.55712891 C10.5816658 5.18367612 11.82214157 5.81047203 13.0625 6.4375 C14.34002901 7.08003245 15.61761735 7.72244694 16.89526367 8.36474609 C25.3887615 12.64294042 33.83382454 17.00735682 42.23046875 21.47265625 C45.88906451 23.41798141 49.56098466 25.33635292 53.23828125 27.24609375 C54.29877686 27.79700684 55.35927246 28.34791992 56.4519043 28.91552734 C58.53471749 29.99659665 60.61819275 31.07639156 62.70239258 32.15478516 C64.10654419 32.8844751 64.10654419 32.8844751 65.5390625 33.62890625 C66.37646973 34.06275635 67.21387695 34.49660645 68.07666016 34.94360352 C70 36 70 36 71 37 C71.12066952 39.12857404 71.17028437 41.26119436 71.19287109 43.39306641 C71.20513733 44.39589912 71.20513733 44.39589912 71.21765137 45.41899109 C71.24258641 47.64650582 71.25905852 49.87395558 71.2734375 52.1015625 C71.27876118 52.8652351 71.28408485 53.6289077 71.28956985 54.41572189 C71.31636022 58.47245022 71.3356999 62.52914744 71.35009766 66.5859375 C71.36333626 69.92053278 71.39098929 73.25450137 71.43212891 76.58886719 C71.48198092 80.62961928 71.50628473 84.66981102 71.51332474 88.71085739 C71.51996323 90.23920169 71.53498714 91.76753722 71.55921555 93.29570389 C71.91991687 117.46252525 60.43091593 134.4959365 43.9375 151.5 C32.71641398 162.71445907 19.35501749 170.46903993 5 177 C4.12730469 177.42152344 3.25460938 177.84304688 2.35546875 178.27734375 C-3.98528509 180.22268282 -11.37910107 175.68024785 -17 173 C-25.51953662 168.43937237 -33.64715438 163.28681968 -41 157 C-41.79664063 156.32453125 -42.59328125 155.6490625 -43.4140625 154.953125 C-58.42027161 141.85172881 -72.54909613 125.47769432 -75 105 C-75.08235691 102.6555191 -75.11789396 100.30905767 -75.11352539 97.96313477 C-75.11367142 97.29886978 -75.11381744 96.6346048 -75.1139679 95.95021057 C-75.11327785 93.78057451 -75.10552854 91.61102709 -75.09765625 89.44140625 C-75.09578884 87.92683458 -75.09436646 86.41226231 -75.09336853 84.89768982 C-75.0895688 80.93081973 -75.07976051 76.96398684 -75.06866455 72.99713135 C-75.05839546 68.94145206 -75.05385918 64.8857667 -75.04882812 60.83007812 C-75.03813573 52.88670177 -75.02109021 44.94335553 -75 37 C-74.3598848 36.66725067 -73.71976959 36.33450134 -73.06025696 35.9916687 C-70.09823576 34.45119031 -67.13700624 32.90919583 -64.17578125 31.3671875 C-63.16938599 30.84406982 -62.16299072 30.32095215 -61.12609863 29.78198242 C-54.44099957 26.29912503 -47.79935434 22.74482949 -41.1875 19.125 C-40.25365479 18.61509018 -39.31980957 18.10518036 -38.35766602 17.57981873 C-33.82380936 15.10403883 -29.29932423 12.61246514 -24.78565979 10.10003662 C-22.40307472 8.77704285 -20.01500314 7.46416718 -17.62588501 6.15301514 C-15.90486395 5.2039683 -14.19099907 4.24198133 -12.47729492 3.27978516 C-10.90685425 2.42006104 -10.90685425 2.42006104 -9.3046875 1.54296875 C-7.9122583 0.7698938 -7.9122583 0.7698938 -6.49169922 -0.01879883 C-3.61966384 -1.1497718 -2.80918157 -1.15253662 0 0 Z M-18.625 15.25 C-20.01666643 16.07241897 -21.41207452 16.88853724 -22.81103516 17.69848633 C-25.5995551 19.32279102 -28.36619613 20.97678241 -31.11914062 22.66064453 C-36.42075517 25.88671323 -41.89503024 28.77858227 -47.375 31.6875 C-49.76297743 32.97822444 -52.14150622 34.27446421 -54.49234009 35.63171387 C-57 37 -57 37 -59.60369873 38.08636475 C-62.53831526 39.45532337 -64.67646461 40.73121193 -67 43 C-68.44722634 47.55683371 -68.26152888 51.94553678 -68.1171875 56.69140625 C-68.10866889 58.0417243 -68.10402808 59.39207181 -68.10305786 60.74241638 C-68.09074596 63.57222626 -68.04551613 66.39885712 -67.97412109 69.2277832 C-67.88417563 72.81640514 -67.85410037 76.40213134 -67.84664726 79.99177647 C-67.8376874 82.78311141 -67.80689558 85.57386438 -67.7688942 88.36494255 C-67.74297822 90.31927775 -67.72618857 92.27372732 -67.70968628 94.22816467 C-67.12959045 116.3787815 -55.76215566 132.13439398 -40.26171875 147.046875 C-30.74101421 155.87417072 -19.62393809 162.34735788 -8 168 C-7.15566406 168.4228125 -6.31132812 168.845625 -5.44140625 169.28125 C0.63183746 171.06921295 5.83391082 167.87830509 11.0625 165.0625 C11.80765869 164.66353516 12.55281738 164.26457031 13.32055664 163.85351562 C20.479198 159.91216369 26.75789396 155.24771431 33 150 C33.87011719 149.29359375 34.74023438 148.5871875 35.63671875 147.859375 C47.7044436 137.62927858 60.51100731 122.10231849 63 106 C63.08529699 103.82320055 63.11775542 101.64404204 63.11352539 99.46557617 C63.11344986 98.16460495 63.11337433 96.86363373 63.11329651 95.52323914 C63.10819062 94.11314861 63.10297464 92.70305849 63.09765625 91.29296875 C63.09578979 89.84279937 63.09436696 88.39262935 63.09336853 86.94245911 C63.0895613 83.13667034 63.07974642 79.33092009 63.06866455 75.52514648 C63.05841177 71.63721233 63.05386264 67.74927192 63.04882812 63.86132812 C63.03812246 56.24086791 63.0210677 48.62043936 63 41 C61.95360352 40.55793213 60.90720703 40.11586426 59.82910156 39.66040039 C56.74934991 38.33975408 53.73310166 36.93096249 50.734375 35.43359375 C49.77144531 34.9530957 48.80851562 34.47259766 47.81640625 33.97753906 C46.29853516 33.21521973 46.29853516 33.21521973 44.75 32.4375 C43.69167969 31.90737305 42.63335937 31.37724609 41.54296875 30.83105469 C34.29793295 27.18892026 27.09431103 23.47563791 19.94433594 19.65014648 C18.52372745 18.89274561 17.0927985 18.15448463 15.65380859 17.43261719 C13.48361037 16.26106952 11.48588738 15.01861442 9.42822266 13.66894531 C-2.02469885 6.539305 -7.65922824 8.26018776 -18.625 15.25 Z " fill="#F9F9F9" transform="translate(252,161)"/>
<path d="M0 0 C2.63891602 0.57666016 2.63891602 0.57666016 4.63891602 2.57666016 C4.4259453 7.12081091 2.50045574 9.22851266 -0.61791992 12.3828125 C-1.97503082 13.76851944 -1.97503082 13.76851944 -3.35955811 15.18222046 C-4.35419955 16.17633916 -5.34951642 17.16978247 -6.34545898 18.16259766 C-7.36382502 19.18873996 -8.38174266 20.21532744 -9.39923096 21.24234009 C-11.53111964 23.38913278 -13.67056962 25.52803401 -15.81518555 27.66210938 C-18.56406436 30.39937493 -21.28948904 33.15874941 -24.00927353 35.9248867 C-26.10408863 38.04913922 -28.21256627 40.15940329 -30.32526398 42.2658577 C-31.33627532 43.27789652 -32.34256167 44.29467834 -33.34398651 45.31620407 C-34.74384511 46.74069236 -36.16482145 48.14433519 -37.58666992 49.546875 C-38.38973572 50.35119965 -39.19280151 51.15552429 -40.02020264 51.98422241 C-42.36108398 53.57666016 -42.36108398 53.57666016 -45.01422119 53.45645142 C-50.37806476 51.44565526 -53.78155695 45.8786838 -57.36108398 41.57666016 C-57.83932617 41.01172852 -58.31756836 40.44679688 -58.81030273 39.86474609 C-60.24367241 38.15949732 -61.64999465 36.43550215 -63.04858398 34.70166016 C-63.71796997 33.89970215 -63.71796997 33.89970215 -64.40087891 33.08154297 C-66.4791717 30.42896867 -67.40443061 29.11886036 -67.13061523 25.69384766 C-66.87666992 24.99517578 -66.62272461 24.29650391 -66.36108398 23.57666016 C-64.17358398 22.76416016 -64.17358398 22.76416016 -61.36108398 22.57666016 C-59.57320939 24.19309472 -57.9792625 25.80173021 -56.36108398 27.57666016 C-55.85730225 28.11524658 -55.35352051 28.65383301 -54.83447266 29.20874023 C-53.2302383 30.92750986 -51.63807285 32.65675249 -50.04858398 34.38916016 C-49.22390625 35.28538086 -49.22390625 35.28538086 -48.38256836 36.19970703 C-47.0411142 37.65780937 -45.70096333 39.11711056 -44.36108398 40.57666016 C-39.06619982 36.17508071 -34.23314638 31.50196571 -29.45092773 26.55322266 C-27.95233391 25.02253507 -26.452962 23.49260894 -24.95288086 21.96337891 C-22.61289264 19.57382407 -20.27786959 17.18019248 -17.95556641 14.7734375 C-15.69688725 12.43618527 -13.41967151 10.1184279 -11.13842773 7.80322266 C-10.44764633 7.07833649 -9.75686493 6.35345032 -9.04515076 5.6065979 C-4.18353005 0.71776698 -4.18353005 0.71776698 0 0 Z " fill="#F5F5F5" transform="translate(281.361083984375,223.42333984375)"/>
</svg>
